PathFileType	4	(X/Y/Z)	C:/Users/beibeiliu/ov580/test_trc/capture2\sequence.22_training_dense_left.trc
DataRate	CameraRate	NumFrames	NumMarkers	Units	OrigDataRate	OrigDataStartFrame	OrigNumFrames
120	120	24	19	mm	120	238	380
Frame#	Time	ThumbCMC			ThumbMCP			ThumbIP			ThumbTip			IndexMCP			IndexPIP			IndexTip			MiddleMCP			MiddlePIP			MiddleTip			RingMCP			RingPIP			RingTip			PinkyMCP			PinkyPIP			PinkyTip			BackHand1			BackHand2			BackHand3	
		X0	Y0	Z0	X1	Y1	Z1	X2	Y2	Z2	X3	Y3	Z3	X4	Y4	Z4	X5	Y5	Z5	X6	Y6	Z6	X7	Y7	Z7	X8	Y8	Z8	X9	Y9	Z9	X10	Y10	Z10	X11	Y11	Z11	X12	Y12	Z12	X13	Y13	Z13	X14	Y14	Z14	X15	Y15	Z15	X16	Y16	Z16	X17	Y17	Z17	X18	Y18	Z18	
237	1.975	-94.1068	72.1287	42.385	-71.2828	81.5275	22.7034	-63.4931	96.8745	5.66615	-67.0341	115.363	-14.7319	-68.2951	126.636	0.44743	-57.6208	115.694	-22.0742	-73.6153	85.0707	-23.5606	-87.0251	122.264	-14.7095	-79.6735	95.9344	-31.0545	-95.6341	73.7615	-5.5112	-107.131	117.836	-23.4684	-98.1363	90.5193	-34.9848	-104.23	73.2118	-6.28046	-130.033	126.941	-19.0563	-128.947	135.317	-36.0057	-123.105	152.624	-58.1165	-137.884	110.008	24.8549	-147.263	92.4734	44.5164	-117.175	99.3938	49.8207	
238	1.98333	-92.8487	70.9706	40.9774	-74.8412	76.473	19.3648	-57.1298	93.7839	2.71197	-54.5451	112.028	-13.926	-73.7484	126.182	-2.93028	-65.3292	109.687	-29.841	-75.105	80.6421	-20.6861	-91.438	123.096	-19.1391	-89.1362	95.6807	-35.984	-98.1861	74.685	-6.89158	-107.805	118.113	-27.0961	-102.54	92.0877	-37.105	-110.196	74.779	-8.14781	-135.945	129.982	-22.5263	-128.701	138.945	-40.5706	-126.673	152.859	-59.008	-137.381	111.551	25.7619	-151.016	96.3082	42.0603	-116.322	97.3022	48.678	
239	1.99167	-94.7081	73.052	36.6741	-79.2219	80.6334	12.3058	-61.5983	95.231	-3.56739	-50.2017	111.747	-20.0681	-79.8901	127.122	-11.4402	-69.2939	109.888	-34.5383	-84.6709	80.3043	-22.5503	-96.4561	124.977	-24.163	-95.3689	97.6872	-40.3838	-104.934	77.6517	-9.87904	-115.385	120.648	-30.5723	-108.522	90.5833	-38.8715	-117.029	76.7922	-12.4757	-138.469	129.524	-21.4573	-133.095	142.49	-45.7866	-130.468	154.285	-59.9221	-140.724	117.488	19.6484	-153.822	96.8983	42.2767	-117.74	103.96	44.3767	
240	2	-96.6305	79.1565	29.4548	-80.5994	81.1009	8.10191	-63.9276	96.7792	-10.1415	-58.6674	112.94	-27.2601	-83.4048	128.986	-18.3851	-79.0928	107.691	-41.8919	-90.2418	83.5477	-28.5378	-102.698	126.334	-33.4058	-100.029	101.577	-45.7952	-108.289	80.3545	-12.3771	-116.709	122.641	-34.6953	-114.288	94.0772	-43.0075	-121.725	80.1948	-11.5354	-145.306	136.925	-30.1635	-140.235	144.14	-48.9948	-134.955	158.028	-66.4253	-145.121	121.675	18.1605	-151.778	101.035	37.6605	-118.13	108.71	40.4306	
241	2.00833	-102.211	79.7589	28.8675	-82.2337	84.8952	3.96581	-65.9107	102.471	-15.1981	-61.31	113.386	-30.2636	-84.0318	130.795	-20.5908	-79.8316	112.68	-44.2479	-95.2435	86.5944	-30.3884	-103.565	129.946	-32.1458	-100.489	101.112	-46.754	-110.606	82.2069	-16.3084	-121.307	125.72	-37.921	-119.69	92.5783	-44.7667	-122.306	83.9944	-12.136	-148.438	138.071	-31.6628	-142.41	147.064	-52.7811	-141.121	159.324	-70.7919	-146.657	124.398	17.3725	-155.941	103.283	36.4703	-121.194	113.204	34.1698	
242	2.01667	-99.0227	82.1973	27.2236	-85.9528	89.6748	1.48837	-67.6773	101.816	-16.2837	-58.2895	116.833	-34.4685	-83.3871	132.468	-24.6687	-83.3991	112.517	-46.5956	-97.6703	87.3113	-29.8395	-106.182	130.611	-35.3614	-101.481	100.75	-46.498	-112.868	83.9259	-18.2313	-126.559	127.707	-39.9211	-117.747	96.834	-44.3103	-125.681	85.3809	-12.1941	-147.673	140.292	-31.4902	-141.544	147.832	-50.6229	-142.334	162.009	-72.2537	-143.042	125.553	17.0546	-153.982	104.015	37.3798	-118.583	114.802	35.6971	
243	2.025	-99.6214	83.8266	26.1021	-83.2946	88.0887	1.06256	-70.5295	103.256	-18.3164	-61.1974	116.51	-35.4154	-86.4923	135.293	-25.7017	-85.3707	116.142	-48.5249	-96.6173	87.8708	-31.0445	-105.052	131.682	-35.8298	-105.238	103.443	-49.4741	-115.247	86.516	-17.6007	-126.809	128.99	-37.5793	-118.518	101.088	-47.7496	-125.787	87.1951	-13.0359	-146.83	141.758	-33.2973	-144.481	149.115	-51.8686	-141.963	161.215	-71.1684	-141.486	128.749	13.8237	-151.101	107.935	37.2418	-122.286	115.51	34.947	
244	2.03333	-99.108	86.4249	23.3377	-81.049	88.035	1.15286	-69.3694	102.166	-17.7546	-59.1215	118.886	-38.1719	-85.3977	136.045	-23.9656	-83.9471	119.233	-50.1435	-92.9461	89.8939	-32.9311	-104.027	133.915	-36.734	-106.747	106.135	-50.7691	-114.289	87.4727	-19.3407	-122.728	130.1	-39.1972	-118.551	98.6619	-46.0619	-126.605	87.372	-15.1314	-147.695	142.051	-31.8606	-146.207	149.399	-50.9971	-142.935	163.523	-71.5431	-145.467	128.473	14.629	-151.22	111.759	35.5665	-115.992	113.665	35.8614	
245	2.04167	-96.9969	85.7067	25.7524	-77.3729	93.225	-1.99786	-66.0726	103.432	-18.614	-60.6611	117.193	-36.8042	-84.4412	137.211	-27.5416	-82.592	117.876	-49.7754	-92.9351	90.6196	-32.2342	-103.185	135.434	-33.9843	-104.827	107.829	-51.3233	-114.216	88.8854	-20.0655	-119.921	131.659	-40.3631	-119.607	100.401	-47.8279	-125.508	87.9361	-19.3898	-148.616	142.973	-32.468	-142.054	150.491	-51.2392	-140.965	165.156	-71.3826	-141.608	132.411	12.635	-149.558	111.749	35.2152	-114.879	116.872	34.9678	
246	2.05	-92.7227	87.6925	24.1353	-76.8471	95.3771	-1.95807	-66.7032	104.784	-17.8427	-59.274	119.075	-36.6543	-82.8124	137.961	-29.1532	-80.7945	116.802	-50.3762	-95.6961	93.9262	-31.5627	-101.504	136.241	-36.0462	-101.643	105.445	-49.675	-107.368	88.6652	-20.6162	-123.743	133.62	-41.1466	-114.427	101.84	-47.5488	-123.266	89.6539	-17.1828	-143.147	145.26	-34.8563	-138.922	153.181	-55.2939	-138.987	163.049	-70.6127	-137.459	133.889	12.9709	-148.813	110.404	35.9026	-113.49	120.23	31.5765	
247	2.05833	-93.643	89.3862	23.2247	-79.3279	92.7522	-1.25822	-63.6745	108.635	-20.2848	-57.1894	119.167	-36.2506	-77.2194	138.133	-27.0724	-77.3293	118.239	-50.7317	-89.7685	92.1335	-33.4908	-99.1275	135.365	-37.1485	-97.5433	107.265	-50.6134	-106.681	90.0893	-17.2655	-120.138	133.308	-41.1829	-117.272	100.812	-49.1675	-121.205	89.7986	-16.4444	-143.638	144.691	-34.8178	-136.78	151.904	-54.7683	-134.572	165.814	-71.8104	-139.96	134.32	11.2979	-147.005	113.459	34.3536	-115.332	118.314	34.0552	
248	2.06667	-89.1676	87.3486	22.4587	-75.311	90.8164	-1.63744	-61.5544	102.734	-20.391	-54.2557	117.735	-40.3259	-79.2059	136.193	-27.8874	-75.0672	115.864	-52.3556	-91.0207	90.9033	-35.2254	-100.071	133.727	-39.2473	-94.208	102.377	-51.2767	-102.97	86.4664	-21.6673	-116.452	130.566	-42.2404	-110.918	99.9715	-49.8786	-115.112	86.638	-20.5647	-141.234	142.185	-35.9797	-136.159	149.171	-57.3055	-135.258	164.853	-78.0064	-134.663	132.169	9.50321	-143.672	112.972	34.2819	-112.334	115.934	30.4603	
249	2.075	-87.514	86.8866	20.3637	-72.9799	88.5823	-3.94685	-58.5842	101.989	-25.5009	-51.154	111.039	-42.719	-76.2403	133.154	-34.2115	-74.2608	113.724	-54.7324	-86.751	87.2644	-38.1612	-97.5657	129.781	-40.1427	-96.528	101.002	-54.5519	-105.907	84.8507	-21.61	-115.912	126.326	-45.4177	-111.541	93.7286	-50.7313	-115.913	85.1016	-17.3419	-138.686	140.36	-39.5399	-137.632	145.138	-59.3621	-136.347	159.125	-79.1937	-137.546	131.582	7.95549	-142.327	109.669	30.9667	-108.592	114.953	31.1463	
250	2.08333	-91.2706	85.7233	17.9969	-71.9127	84.9312	-6.85672	-59.4903	97.2665	-27.9331	-53.2163	105.808	-44.1129	-72.9186	128.918	-34.2375	-76.2278	109.421	-58.4047	-89.7794	81.7362	-35.8138	-96.7048	124.606	-47.7179	-93.9942	95.1137	-54.8994	-104.503	80.8693	-24.4295	-113.771	121.533	-46.8274	-114.94	89.7981	-53.1249	-116	80.1286	-21.966	-138.259	134.902	-41.1187	-136.856	139.322	-63.5673	-136.338	151.578	-81.6805	-132.611	128.31	7.29463	-141.53	108.394	29.7145	-110.105	113.158	26.9464	
251	2.09167	-88.0195	80.1152	18.7688	-73.436	79.2427	-7.17112	-60.7608	91.3691	-29.9544	-55.0685	104.091	-49.3559	-74.875	123.948	-40.1639	-75.5644	101.507	-59.736	-87.7983	78.977	-40.4791	-94.9048	119.565	-48.4038	-96.7489	91.0351	-58.0878	-103.778	77.486	-25.0495	-114.199	115.828	-52.917	-111.791	85.5002	-54.6792	-117.497	77.2125	-21.3924	-138.004	128.994	-43.6908	-136.434	133.751	-65.8762	-134.077	146.384	-88.3854	-130.738	127.051	3.10743	-141.46	108.154	29.045	-110.811	114.332	23.9491	
252	2.1	-91.0093	78.3947	16.5304	-70.984	79.6008	-11.1572	-59.9952	86.8306	-30.9301	-53.2605	96.8692	-52.0374	-74.8686	119.883	-39.8372	-78.9481	95.1919	-61.9478	-91.3546	74.3117	-39.2187	-97.239	115.064	-52.9691	-96.1691	85.9155	-59.5775	-103.402	74.4638	-22.2007	-115.181	112.1	-53.698	-113.752	83.2065	-57.2314	-119.962	72.9369	-24.7533	-141.724	127.084	-50.1222	-133.913	129.174	-71.8706	-132.871	138.747	-92.1691	-131.587	122.054	1.59362	-140.451	107.123	27.2268	-107.932	111.766	22.4212	
253	2.10833	-87.7698	73.214	16.6824	-75.4035	74.5316	-11.6539	-59.8585	82.9105	-33.7019	-52.3049	91.5759	-54.2771	-78.8436	115.946	-46.4504	-76.752	92.8941	-64.1143	-89.4253	69.2289	-42.3788	-97.4793	109.952	-54.5895	-97.2079	81.7235	-61.7622	-105.772	70.7824	-26.1456	-117.62	106.355	-57.6342	-118.369	77.0396	-57.1813	-120.482	71.8145	-21.776	-141.463	123.579	-50.85	-136.396	124.736	-73.7152	-138.319	134.239	-92.1237	-132.411	122.552	-2.2022	-141.299	107.291	23.5986	-104.908	107.724	18.856	
254	2.11667	-89.9312	75.1059	12.0864	-73.2284	70.683	-13.5508	-62.5613	77.7647	-34.4406	-55.844	88.9325	-57.9278	-77.0497	110.575	-45.279	-78.299	86.514	-64.9923	-92.4259	66.2858	-39.3251	-101.694	109.023	-52.8503	-101.167	76.9986	-62.2506	-107.203	67.9569	-22.556	-119.432	105.296	-56.1782	-117.496	72.1986	-55.603	-122.424	68.8028	-22.2533	-144.102	120.177	-50.8179	-137.6	121.072	-71.5349	-136.991	129.71	-95.2348	-130.683	119.584	-2.22937	-139.485	103.031	23.2719	-106.051	104.455	19.73	
255	2.125	-92.2558	71.019	11.3747	-77.2079	65.9445	-12.5035	-63.5802	72.2959	-35.3363	-58.8248	83.4301	-58.6486	-78.5958	106.605	-46.12	-83.8638	80.4584	-65.9296	-97.567	62.8237	-42.7262	-97.827	102.175	-54.5846	-105.247	74.2394	-62.6929	-111.614	63.9864	-25.9209	-117.836	101.752	-55.3394	-122.337	68.491	-56.0078	-121.406	64.3962	-21.6227	-141.509	118.859	-52.3308	-143.059	117.761	-71.4645	-140.953	125.849	-96.9955	-130.56	115.822	-2.50883	-139.147	101.299	24.3222	-109.071	102.276	19.7589	
256	2.13333	-91.1888	64.1264	15.0385	-76.2934	59.7372	-12.3873	-67.5005	68.525	-35.6267	-57.9786	76.3493	-59.8188	-77.84	99.795	-44.7811	-81.52	72.3105	-64.6388	-97.8519	57.2068	-39.5673	-103.842	99.1938	-54.2649	-106.49	68.0944	-63.0611	-112.041	56.9927	-27.6548	-117.971	94.8822	-57.472	-122.672	65.466	-57.6411	-123.609	60.1756	-24.3678	-142.579	114.425	-50.3936	-137.362	114.592	-71.1372	-138.542	120.216	-94.0827	-131.432	112.313	-3.43389	-139.3	99.7914	25.3288	-109.689	99.4472	19.4817	
257	2.14167	-89.9854	57.1516	16.1019	-75.4091	52.9711	-12.1262	-68.3564	58.0216	-33.6984	-62.5475	65.4972	-58.4756	-76.1532	90.6441	-49.7721	-86.886	65.4467	-63.9418	-99.9066	51.1491	-40.3646	-97.7602	90.4503	-55.2683	-108.454	57.8312	-59.3118	-110.545	50.0932	-25.2317	-119.243	92.1592	-54.5514	-123.506	59.8473	-57.7163	-121.457	53.5553	-24.7679	-140.95	107.512	-50.3629	-137.286	107.342	-73.6711	-138.864	115.21	-95.7778	-129.205	107.172	-4.39212	-139.277	95.953	26.1466	-106.598	95.0462	14.4283	
258	2.15	-90.9534	50.4729	16.1963	-80.1742	41.3469	-7.87877	-63.1492	44.7804	-34.8755	-60.0428	52.1496	-55.7751	-77.2517	79.8071	-48.0641	-86.0139	55.5509	-63.5364	-100.052	40.4044	-38.2536	-100.96	81.6721	-54.6626	-105.828	47.6487	-57.2642	-114.821	43.6974	-21.3626	-116.892	80.2444	-55.6541	-120.37	49.4614	-53.4475	-124.066	48.4464	-17.5142	-134.959	101.009	-51.4711	-135.716	100.775	-74.8271	-134.231	103.946	-93.1154	-128.726	101.232	-1.13409	-133.468	89.8242	26.1453	-104.338	86.0183	17.4808	
259	2.15833	-87.9645	39.4722	17.1324	-76.3791	29.3762	-7.03754	-63.8593	33.8882	-33.0742	-57.004	35.2947	-54.3196	-75.9867	67.2048	-46.1899	-81.2038	40.2135	-60.8189	-98.3309	26.8746	-33.8552	-96.9346	69.1229	-52.4782	-106.353	39.1862	-57.4002	-111.307	32.1959	-17.3884	-116.68	69.87	-54.2512	-122.504	41.7695	-51.8538	-120.298	40.1599	-15.25	-131.63	91.1372	-45.2215	-133.628	90.0376	-70.7658	-127.14	93.1543	-94.4544	-125.458	94.1407	2.03218	-131.026	81.4186	28.5099	-95.9982	76.2444	20.6704	
260	2.16667	-88.6852	26.3845	20.7851	-75.2571	14.4257	-2.68995	-63.2676	15.5401	-26.7387	-58.5109	18.0805	-48.009	-73.3903	49.8564	-45.2342	-85.3598	27.9353	-57.4124	-98.7633	13.7088	-28.2058	-92.6467	54.4911	-48.1947	-105.128	25.219	-53.2487	-110.812	19.3416	-13.9199	-109.36	58.3593	-47.5486	-119.373	29.1632	-47.7455	-121.239	29.131	-13.0798	-125.846	81.2148	-48.6431	-125.728	78.9698	-65.6332	-121.297	80.9521	-93.684	-119.403	81.8673	3.64756	-127.225	72.2958	31.0874	-97.0344	63.3618	22.7517	
